<svg width="94" height="20" viewBox="0 0 94 20" fill="none" xmlns="http://www.w3.org/2000/svg">
<path d="M13.7147 0.878115C13.8045 0.601722 14.1955 0.601722 14.2853 0.878115L16.1778 6.70254C16.2179 6.82614 16.3331 6.90983 16.4631 6.90983H22.5873C22.8779 6.90983 22.9987 7.28171 22.7636 7.45254L17.809 11.0522C17.7039 11.1286 17.6599 11.264 17.7001 11.3876L19.5925 17.2121C19.6823 17.4884 19.366 17.7183 19.1309 17.5475L14.1763 13.9478C14.0712 13.8714 13.9288 13.8714 13.8237 13.9478L8.86912 17.5475C8.634 17.7183 8.31766 17.4884 8.40746 17.2121L10.2999 11.3876C10.3401 11.264 10.2961 11.1286 10.191 11.0522L5.2364 7.45253C5.00129 7.28171 5.12212 6.90983 5.41274 6.90983H11.5369C11.6669 6.90983 11.7821 6.82614 11.8222 6.70254L13.7147 0.878115Z" fill="#FFC700"/>
<path d="M81.7147 0.878115C81.8045 0.601722 82.1955 0.601722 82.2853 0.878115L84.1778 6.70254C84.2179 6.82614 84.3331 6.90983 84.4631 6.90983H90.5873C90.8779 6.90983 90.9987 7.28171 90.7636 7.45254L85.809 11.0522C85.7039 11.1286 85.6599 11.264 85.7001 11.3876L87.5925 17.2121C87.6823 17.4884 87.366 17.7183 87.1309 17.5475L82.1763 13.9478C82.0712 13.8714 81.9288 13.8714 81.8237 13.9478L76.8691 17.5475C76.634 17.7183 76.3177 17.4884 76.4075 17.2121L78.2999 11.3876C78.3401 11.264 78.2961 11.1286 78.191 11.0522L73.2364 7.45253C73.0013 7.28171 73.1221 6.90983 73.4127 6.90983H79.5369C79.6669 6.90983 79.7821 6.82614 79.8222 6.70254L81.7147 0.878115Z" fill="#A7A7A7"/>
<path d="M64.7147 0.878115C64.8045 0.601722 65.1955 0.601722 65.2853 0.878115L67.1778 6.70254C67.2179 6.82614 67.3331 6.90983 67.4631 6.90983H73.5873C73.8779 6.90983 73.9987 7.28171 73.7636 7.45254L68.809 11.0522C68.7039 11.1286 68.6599 11.264 68.7001 11.3876L70.5925 17.2121C70.6823 17.4884 70.366 17.7183 70.1309 17.5475L65.1763 13.9478C65.0712 13.8714 64.9288 13.8714 64.8237 13.9478L59.8691 17.5475C59.634 17.7183 59.3177 17.4884 59.4075 17.2121L61.2999 11.3876C61.3401 11.264 61.2961 11.1286 61.191 11.0522L56.2364 7.45253C56.0013 7.28171 56.1221 6.90983 56.4127 6.90983H62.5369C62.6669 6.90983 62.7821 6.82614 62.8222 6.70254L64.7147 0.878115Z" fill="#A7A7A7"/>
<path d="M47.7147 0.878115C47.8045 0.601722 48.1955 0.601722 48.2853 0.878115L50.1778 6.70254C50.2179 6.82614 50.3331 6.90983 50.4631 6.90983H56.5873C56.8779 6.90983 56.9987 7.28171 56.7636 7.45254L51.809 11.0522C51.7039 11.1286 51.6599 11.264 51.7001 11.3876L53.5925 17.2121C53.6823 17.4884 53.366 17.7183 53.1309 17.5475L48.1763 13.9478C48.0712 13.8714 47.9288 13.8714 47.8237 13.9478L42.8691 17.5475C42.634 17.7183 42.3177 17.4884 42.4075 17.2121L44.2999 11.3876C44.3401 11.264 44.2961 11.1286 44.191 11.0522L39.2364 7.45253C39.0013 7.28171 39.1221 6.90983 39.4127 6.90983H45.5369C45.6669 6.90983 45.7821 6.82614 45.8222 6.70254L47.7147 0.878115Z" fill="#FFC700"/>
<path d="M30.7147 0.878115C30.8045 0.601722 31.1955 0.601722 31.2853 0.878115L33.1778 6.70254C33.2179 6.82614 33.3331 6.90983 33.4631 6.90983H39.5873C39.8779 6.90983 39.9987 7.28171 39.7636 7.45254L34.809 11.0522C34.7039 11.1286 34.6599 11.264 34.7001 11.3876L36.5925 17.2121C36.6823 17.4884 36.366 17.7183 36.1309 17.5475L31.1763 13.9478C31.0712 13.8714 30.9288 13.8714 30.8237 13.9478L25.8691 17.5475C25.634 17.7183 25.3177 17.4884 25.4075 17.2121L27.2999 11.3876C27.3401 11.264 27.2961 11.1286 27.191 11.0522L22.2364 7.45253C22.0013 7.28171 22.1221 6.90983 22.4127 6.90983H28.5369C28.6669 6.90983 28.7821 6.82614 28.8222 6.70254L30.7147 0.878115Z" fill="#FFC700"/>
</svg>
